<?xml version="1.0" encoding="utf-8"?>
<!-- Generator: Adobe Illustrator 24.0.1, SVG Export Plug-In . SVG Version: 6.00 Build 0)  -->
<svg version="1.1" id="Layer_1" xmlns="http://www.w3.org/2000/svg" xmlns:xlink="http://www.w3.org/1999/xlink" x="0px" y="0px"
	 viewBox="0 0 33.7 33.7" style="enable-background:new 0 0 33.7 33.7;" xml:space="preserve">
<style type="text/css">
	.st0{fill:#1D1D1B;}
</style>
<title>BANK</title>
<g id="Layer_2_1_">
	<g id="Layer_3">
		<path class="st0" d="M28.9,26H27v-1.9c0-0.3-0.2-0.5-0.5-0.5h-1.9V15h1.9c0.3,0,0.5-0.2,0.5-0.5l0,0V12c0-0.1,0-0.1,0-0.2
			c0-0.1-0.1-0.1-0.1-0.2l-7.3-7.2c0,0-0.1-0.1-0.2-0.1c-0.1,0-0.1,0-0.2,0h-4.8c-0.1,0-0.1,0-0.2,0c-0.1,0-0.1,0.1-0.2,0.1
			l-7.2,7.2c0,0-0.1,0.1-0.1,0.2c0,0.1,0,0.1,0,0.2v2.4C6.7,14.7,7,15,7.3,15h1.8v8.6H7.2c-0.3,0-0.5,0.2-0.5,0.5V26H4.8
			c-0.3,0-0.5,0.2-0.5,0.5l0,0v2.4c0,0.3,0.2,0.5,0.5,0.5c0,0,0,0,0,0h24.1c0.3,0,0.5-0.2,0.5-0.5v0v-2.4C29.4,26.2,29.2,26,28.9,26
			L28.9,26z M7.8,26v-1.4H26V26H7.8z M7.8,12.3l6.9-6.9H19l7,6.9v1.6H7.8V12.3z M18.8,23.6H15V15h3.8L18.8,23.6z M19.8,23.6V15h3.7
			v8.6L19.8,23.6z M13.9,15v8.6h-3.7V15H13.9z M28.4,28.4h-23V27h23V28.4z"/>
		<path class="st0" d="M16.9,12.6c1.6,0,2.9-1.3,2.9-2.9c0-1.6-1.3-2.9-2.9-2.9c-1.6,0-2.9,1.3-2.9,2.9
			C13.9,11.3,15.2,12.6,16.9,12.6C16.9,12.6,16.9,12.6,16.9,12.6z M16.9,7.8c1,0,1.9,0.8,1.9,1.9c0,1-0.8,1.9-1.9,1.9
			c-1,0-1.9-0.8-1.9-1.9c0,0,0,0,0,0C15,8.6,15.8,7.8,16.9,7.8z"/>
	</g>
</g>
</svg>
