<?xml version="1.0" encoding="utf-8"?>
<!-- Generator: Adobe Illustrator 24.0.1, SVG Export Plug-In . SVG Version: 6.00 Build 0)  -->
<svg version="1.1" id="Layer_1" xmlns="http://www.w3.org/2000/svg" xmlns:xlink="http://www.w3.org/1999/xlink" x="0px" y="0px"
	 viewBox="0 0 33.7 33.7" style="enable-background:new 0 0 33.7 33.7;" xml:space="preserve">
<style type="text/css">
	.st0{fill:#1D1D1B;}
</style>
<title>HOOK</title>
<g id="Layer_2_1_">
	<g id="Layer_3">
		<path class="st0" d="M24.1,4.3H9.6c-3,0-5.3,2.4-5.3,5.3v7.2c0,1.6,1.3,2.9,2.9,2.9h2.4c1.6,0,2.9-1.3,2.9-2.9v-2.4
			c0-0.3-0.2-0.5-0.5-0.5c0,0,0,0,0,0h-1.9v-3.7h13.4v6.1h-4.3c-3,0-5.3,2.4-5.4,5.4v1.9c-2.7,0.3-4.8,2.6-4.8,5.3
			c0,0.3,0.2,0.5,0.5,0.5h14.4c0.3,0,0.5-0.2,0.5-0.5c0-2.7-2.1-5-4.8-5.3v-1.4h4.3c3,0,5.3-2.4,5.4-5.4V9.6
			C29.4,6.7,27,4.3,24.1,4.3z M24.1,21.1h-4.8c-0.3,0-0.5,0.2-0.5,0.5c0,0,0,0,0,0v2.4c0,0.3,0.2,0.5,0.5,0.5c0,0,0,0,0,0
			c2.2,0,4,1.6,4.2,3.8H10.2c0.3-2.1,2.1-3.7,4.2-3.8c0.3,0,0.5-0.2,0.5-0.5l0,0v-2.4c0-2.4,1.9-4.3,4.3-4.3l0,0h4.8
			c0.3,0,0.5-0.2,0.5-0.5c0,0,0,0,0,0V9.6c0-0.3-0.2-0.5-0.5-0.5l0,0H9.6c-0.3,0-0.5,0.2-0.5,0.5v4.8c0,0.3,0.2,0.5,0.5,0.5h1.9v1.9
			c0,1-0.8,1.9-1.9,1.9c0,0,0,0,0,0H7.2c-1,0-1.9-0.8-1.9-1.9l0,0V9.6c0-2.4,1.9-4.3,4.3-4.3l0,0h14.4c2.4,0,4.3,1.9,4.3,4.3l0,0
			v7.2C28.4,19.2,26.4,21.1,24.1,21.1z"/>
	</g>
</g>
</svg>
