<?xml version="1.0" encoding="utf-8"?>
<!-- Generator: Adobe Illustrator 24.0.1, SVG Export Plug-In . SVG Version: 6.00 Build 0)  -->
<svg version="1.1" id="Layer_1" xmlns="http://www.w3.org/2000/svg" xmlns:xlink="http://www.w3.org/1999/xlink" x="0px" y="0px"
	 viewBox="0 0 33.7 33.7" style="enable-background:new 0 0 33.7 33.7;" xml:space="preserve">
<style type="text/css">
	.st0{fill:#1D1D1B;}
</style>
<title>LARGEST_CASH</title>
<g id="Layer_2_1_">
	<g id="Layer_3">
		<path class="st0" d="M8.4,13.5c0,0.1-0.1,0.2-0.2,0.3C8.1,13.9,8,14,7.8,14c-0.3,0.1-0.7,0.1-1,0.1H6.2H5.7H5.3
			c-0.4,0-0.7,0-1.1,0.1L4,14.4l-0.1,0.2l-0.2,0.2c-0.1,0.1-0.1,0.2-0.2,0.3l-0.2,0.2c0,0-0.1,0.1-0.1,0.1c0.1,0.1,0.2,0.1,0.3,0.1
			L4,15.6h0.3h0.3h0.2h0.2c0.5,0.1,0.9,0.2,1.3,0.5c0.3,0.3,0.5,0.7,0.4,1.1c0,0.1,0,0.3-0.1,0.4c-0.1,0.1-0.1,0.3-0.2,0.4
			c-0.1,0.1-0.2,0.2-0.3,0.4c-0.1,0.1-0.2,0.2-0.4,0.3c-0.3,0.2-0.7,0.4-1.1,0.5c-0.4,0.1-0.8,0.2-1.2,0.2c-0.3,0-0.6,0-0.9-0.1
			c-0.2,0-0.5-0.1-0.7-0.3H1.7l-0.1-0.1c-0.1-0.1-0.1-0.1-0.1-0.2c0-0.3,0.2-0.5,0.6-0.5c0.1,0,0.2,0.1,0.3,0.1l0.1,0.1h0.1
			c0.3,0.2,0.7,0.2,1,0.2c0.3,0,0.7-0.1,1-0.2c0.3-0.1,0.7-0.3,0.9-0.5c0.1-0.1,0.2-0.2,0.2-0.2c0-0.1,0.1-0.2,0.1-0.3
			c0-0.2-0.1-0.4-0.2-0.6c-0.1-0.2-0.3-0.3-0.4-0.3c-0.2-0.1-0.4-0.1-0.6-0.2c-0.2,0-0.4-0.1-0.7-0.1H3.8H3.5H3.3H3.1
			c-0.2,0-0.3-0.1-0.5-0.2c-0.2-0.1-0.3-0.2-0.3-0.3c0-0.1,0.1-0.3,0.2-0.4l0.4-0.6c0.3-0.4,0.5-0.7,0.6-0.9s0.3-0.3,0.4-0.3h0.3
			h0.4h0.7H6h0.4c0.1,0,0.3,0,0.4,0H7l0.3-0.1c0.1,0,0.3-0.1,0.4-0.1c0.2,0,0.4,0.1,0.5,0.2h0.1h0.1l0,0C8.3,13.6,8.3,13.6,8.4,13.5
			C8.3,13.5,8.3,13.5,8.4,13.5z"/>
		<path class="st0" d="M10.8,19c0,0.2-0.1,0.3-0.2,0.5c-0.1,0.2-0.2,0.3-0.3,0.5c-0.2,0.2-0.4,0.3-0.6,0.5H9.7H9.6H9.4H9.4
			c-0.2,0.1-0.4,0.2-0.6,0.2c-0.1,0-0.1-0.1-0.1-0.2c0,0,0-0.1,0-0.1C9,20.1,9.4,20,9.7,19.7c0.1-0.1,0.1-0.2,0.2-0.3
			C9.9,19.3,10,19.1,10,19c0-0.1,0-0.3,0-0.4c0-0.1,0-0.1-0.1-0.2c0,0-0.1-0.1-0.1-0.2c0-0.1,0-0.1,0.1-0.2c0-0.1,0.1-0.1,0.1-0.1
			c0.1,0,0.2,0,0.3,0.1c0.1,0,0.2,0.1,0.3,0.1C10.7,18.4,10.8,18.7,10.8,19z"/>
		<path class="st0" d="M13.3,19.8h-0.2h-0.3l-0.3-0.1c-0.1,0-0.2-0.1-0.3-0.1c-0.1-0.1-0.2-0.1-0.3-0.2c-0.1-0.1-0.2-0.2-0.3-0.4
			c-0.1-0.2-0.2-0.3-0.2-0.5c-0.1-0.2-0.1-0.3-0.1-0.5c0,0,0-0.1,0-0.2c0-0.1,0-0.2,0.1-0.3c0-0.1,0.1-0.2,0.1-0.4l0.1-0.4l0.1-0.4
			l0.1-0.3c0-0.1,0.1-0.3,0.2-0.4c0.1-0.2,0.2-0.3,0.3-0.5c0.1-0.2,0.3-0.3,0.4-0.5s0.3-0.3,0.5-0.5s0.3-0.3,0.5-0.5
			s0.3-0.3,0.4-0.4c0.1-0.1,0.2-0.2,0.3-0.3c0.1,0,0.1-0.1,0.2-0.1h0.9l0.4,0.1c0.1,0,0.3,0.1,0.4,0.1c0.1,0.1,0.3,0.1,0.4,0.2
			c0.1,0.1,0.3,0.2,0.4,0.3c0.1,0.1,0.3,0.3,0.4,0.5c0.1,0.2,0.3,0.4,0.4,0.6l0.1,0.2l0.1,0.2c0,0.1,0.1,0.2,0.1,0.2
			c0,0.1,0,0.1,0,0.2c0,0.2,0,0.5-0.1,0.7c-0.1,0.3-0.2,0.5-0.4,0.7c-0.2,0.2-0.3,0.5-0.5,0.7c-0.2,0.2-0.5,0.4-0.7,0.6
			c-0.2,0.2-0.5,0.4-0.8,0.5c-0.3,0.1-0.5,0.3-0.8,0.4c-0.3,0.1-0.5,0.2-0.8,0.3C13.7,19.8,13.5,19.8,13.3,19.8z M15.5,14
			c-0.1,0-0.2,0-0.3,0.1c-0.1,0-0.2,0.1-0.2,0.1l-0.1,0.1l-0.1,0.1h-0.1h-0.1h-0.1h-0.1l-0.1-0.1c0,0,0-0.1-0.1-0.1
			c-0.1,0.2-0.3,0.3-0.4,0.5l-0.4,0.4c-0.1,0.1-0.3,0.3-0.4,0.5c-0.1,0.2-0.2,0.3-0.3,0.5c0,0.1-0.1,0.2-0.1,0.3
			c-0.1,0.1-0.1,0.3-0.2,0.4c-0.1,0.1-0.1,0.3-0.1,0.5c0,0.2,0,0.3,0,0.5c0,0.1,0,0.3,0.1,0.4c0,0.1,0.1,0.3,0.2,0.4
			c0.1,0.1,0.2,0.2,0.3,0.3C13,19,13.1,19,13.3,19h0.2l0.3,0l0.3-0.1l0.3-0.1l0.3-0.1c0.1,0,0.1-0.1,0.2-0.1l0.3-0.2l0.4-0.2
			l0.4-0.3c0.1-0.1,0.3-0.2,0.4-0.3c0.1-0.1,0.3-0.2,0.4-0.4c0.1-0.1,0.2-0.2,0.3-0.4c0.1-0.1,0.2-0.3,0.2-0.4
			c0.1-0.1,0.1-0.3,0.1-0.4c0-0.1,0-0.3-0.1-0.4c-0.1-0.2-0.1-0.3-0.2-0.5c-0.1-0.2-0.2-0.3-0.3-0.4c-0.1-0.1-0.2-0.3-0.4-0.4
			c-0.1-0.1-0.3-0.2-0.4-0.3C15.8,14,15.7,14,15.5,14z"/>
		<path class="st0" d="M20.4,19.8h-0.2h-0.3l-0.3-0.1c-0.1,0-0.2-0.1-0.3-0.1c-0.1-0.1-0.2-0.1-0.3-0.2c-0.1-0.1-0.2-0.2-0.3-0.4
			c-0.1-0.1-0.2-0.3-0.2-0.5c-0.1-0.2-0.1-0.3-0.1-0.5c0-0.1,0-0.1,0-0.2c0-0.1,0-0.2,0-0.3s0-0.2,0.1-0.4l0.1-0.4
			c0-0.1,0.1-0.2,0.1-0.4c0-0.1,0-0.2,0.1-0.3c0-0.1,0.1-0.3,0.2-0.4c0.1-0.2,0.2-0.3,0.3-0.5c0.1-0.2,0.3-0.3,0.4-0.5
			s0.3-0.3,0.5-0.5l0.5-0.5c0.1-0.1,0.3-0.3,0.4-0.4c0.1-0.1,0.2-0.2,0.4-0.3c0.1,0,0.1-0.1,0.2-0.1h0.9l0.4,0.1
			c0.1,0,0.3,0.1,0.4,0.1c0.1,0.1,0.3,0.1,0.4,0.2c0.1,0.1,0.3,0.2,0.4,0.3c0.1,0.1,0.3,0.3,0.4,0.5c0.1,0.2,0.3,0.4,0.4,0.6
			c0,0,0,0.1,0.1,0.2c0,0.1,0.1,0.1,0.1,0.2c0,0.1,0.1,0.2,0.1,0.2c0,0.1,0,0.1,0,0.2c0,0.3,0,0.5-0.1,0.7c-0.1,0.3-0.2,0.5-0.4,0.7
			c-0.2,0.2-0.4,0.5-0.6,0.7c-0.2,0.2-0.4,0.4-0.7,0.6c-0.2,0.2-0.5,0.4-0.8,0.5c-0.3,0.1-0.5,0.3-0.8,0.4c-0.3,0.1-0.5,0.2-0.8,0.3
			C20.8,19.8,20.6,19.8,20.4,19.8z M22.5,14c-0.1,0-0.2,0-0.3,0.1c-0.1,0-0.2,0.1-0.2,0.1l-0.1,0.1l-0.1,0.1h-0.1h-0.1h-0.1h-0.1
			l-0.1-0.1c0,0,0-0.1,0-0.1c-0.1,0.2-0.3,0.3-0.4,0.5l-0.4,0.4c-0.1,0.1-0.3,0.3-0.4,0.5c-0.1,0.2-0.2,0.3-0.3,0.5
			c0,0.1-0.1,0.2-0.2,0.3c-0.1,0.1-0.1,0.3-0.2,0.4c-0.1,0.2-0.1,0.3-0.1,0.5c0,0.2-0.1,0.3-0.1,0.5c0,0.1,0,0.3,0.1,0.4
			c0,0.1,0.1,0.3,0.2,0.4c0.1,0.1,0.2,0.2,0.3,0.3C20,19,20.2,19,20.3,19h0.2l0.3,0l0.3-0.1l0.3-0.1l0.3-0.1c0.1,0,0.1-0.1,0.2-0.1
			l0.3-0.2l0.4-0.2l0.4-0.3c0.1-0.1,0.3-0.2,0.4-0.3c0.1-0.1,0.3-0.2,0.4-0.4c0.1-0.1,0.2-0.2,0.3-0.4c0.1-0.1,0.2-0.3,0.2-0.4
			c0.1-0.1,0.1-0.3,0.1-0.4c0-0.1,0-0.3-0.1-0.4c0-0.2-0.1-0.3-0.2-0.5c-0.1-0.2-0.2-0.3-0.3-0.4c-0.1-0.1-0.2-0.3-0.4-0.4
			c-0.1-0.1-0.3-0.2-0.4-0.3C22.9,14,22.7,14,22.5,14z"/>
		<path class="st0" d="M32.2,15.7c0,0.4-0.1,0.9-0.4,1.2c-0.3,0.4-0.6,0.8-1,1.1c-0.4,0.3-0.9,0.6-1.4,0.9c-0.4,0.2-0.9,0.4-1.3,0.4
			c-0.4,0-0.7,0.1-1.1,0.1c-0.4,0-0.9-0.2-1.2-0.5c-0.3-0.4-0.4-0.8-0.4-1.3c0-0.4,0.1-0.9,0.2-1.3c0.2-0.5,0.4-0.9,0.6-1.3
			c0.2-0.4,0.6-0.7,0.9-1c0.4-0.3,0.8-0.6,1.2-0.8c0.4-0.2,0.8-0.3,1.2-0.3c0.3,0,0.7,0.1,1,0.2c0.3,0.1,0.6,0.3,0.9,0.6
			c0.1,0.1,0.2,0.2,0.3,0.3C32.1,14.6,32.2,15.2,32.2,15.7z M31.4,15.9c0-0.2,0-0.4-0.1-0.6c0-0.2-0.1-0.4-0.2-0.5
			c-0.1-0.1-0.1-0.2-0.2-0.2l-0.2-0.2c-0.1-0.1-0.2-0.2-0.4-0.3c-0.1,0.1-0.2,0.1-0.3,0.1c-0.1,0-0.1-0.1-0.2-0.1
			c-0.1-0.1-0.2-0.1-0.3-0.1c-0.2,0-0.4,0-0.5,0.1c-0.2,0-0.3,0.1-0.5,0.2c-0.2,0.1-0.4,0.3-0.6,0.5c-0.4,0.4-0.8,0.9-1.1,1.4
			c-0.3,0.5-0.4,1-0.5,1.5c0,0.2,0,0.4,0.1,0.6c0,0.2,0.1,0.3,0.3,0.4c0.3,0.2,0.6,0.2,0.9,0.2c0.4,0,0.9-0.1,1.3-0.4
			c0.3-0.2,0.7-0.4,1-0.6l0.3-0.3c0.1-0.1,0.2-0.2,0.4-0.3c0.2-0.2,0.5-0.4,0.6-0.7C31.3,16.4,31.4,16.1,31.4,15.9z"/>
	</g>
</g>
</svg>
