<?xml version="1.0" encoding="utf-8"?>
<!-- Generator: Adobe Illustrator 24.0.1, SVG Export Plug-In . SVG Version: 6.00 Build 0)  -->
<svg version="1.1" id="Layer_1" xmlns="http://www.w3.org/2000/svg" xmlns:xlink="http://www.w3.org/1999/xlink" x="0px" y="0px"
	 viewBox="0 0 33.7 33.7" style="enable-background:new 0 0 33.7 33.7;" xml:space="preserve">
<style type="text/css">
	.st0{fill:#1D1D1B;}
</style>
<title>SMALL_CASH</title>
<g id="Layer_2_1_">
	<g id="Layer_3">
		<path class="st0" d="M13.1,18.9c0,0.1,0,0.2-0.1,0.2c-0.1,0.1-0.2,0.2-0.4,0.3c-0.1,0.1-0.3,0.1-0.5,0.1H12c-0.2,0-0.4,0-0.7-0.1
			c-0.5-0.1-1.1-0.2-1.6-0.2H9.3H8.9c-0.3,0-0.5,0.1-0.7,0.2c-0.3,0.1-0.5,0.2-0.7,0.4c-0.1,0.1-0.2,0.2-0.3,0.3
			c-0.1,0.1-0.2,0.1-0.3,0.1c-0.2,0-0.4-0.1-0.4-0.3c0-0.2,0.1-0.4,0.2-0.6c0.2-0.2,0.4-0.4,0.6-0.6l0.4-0.3l0.6-0.3
			c0.1,0,0.3-0.1,0.4-0.2c0.2-0.1,0.3-0.2,0.4-0.3l0.4-0.3L9.8,17c0.2-0.2,0.4-0.4,0.6-0.6c0.2-0.2,0.3-0.4,0.4-0.6
			c0.1-0.2,0.2-0.4,0.2-0.6c0-0.2-0.1-0.3-0.2-0.4c-0.1-0.2-0.3-0.3-0.5-0.4c-0.1-0.1-0.3-0.2-0.5-0.2c-0.3,0-0.5,0.1-0.8,0.3
			l-0.4,0.3c-0.1,0.1-0.2,0.2-0.3,0.3l-0.1,0.1l-0.1,0.1L8,15.3c0,0-0.1,0-0.1,0.1H7.7H7.5c-0.1,0-0.1-0.1-0.2-0.2
			c-0.1-0.1-0.1-0.2-0.1-0.3c0-0.1,0-0.1,0.1-0.2c0.1-0.1,0.1-0.1,0.2-0.2l0.3-0.2L8.3,14l0.4-0.2c0.1-0.1,0.2-0.1,0.4-0.1
			c0.1-0.1,0.3-0.1,0.4-0.1c0.3-0.1,0.6-0.1,0.8-0.1c0.3,0,0.6,0.1,0.9,0.4c0.3,0.3,0.5,0.5,0.7,0.9c0.1,0.1,0.1,0.2,0.2,0.4
			c0,0.3-0.1,0.6-0.3,0.9c-0.1,0.2-0.2,0.3-0.3,0.5c-0.1,0.2-0.3,0.3-0.4,0.5c-0.2,0.3-0.5,0.5-0.8,0.8c-0.4,0.3-0.8,0.6-1.2,0.9
			h0.7c0.3,0,0.8,0,1.5,0.1h0.3h0.3h0.5c0.1,0,0.2,0,0.3-0.1c0.1,0,0.2-0.1,0.3-0.1c0.1,0,0.1,0,0.2,0.1C13,18.7,13,18.8,13.1,18.9z
			"/>
		<path class="st0" d="M15.5,20.2h-0.2h-0.3l-0.3-0.1c-0.1,0-0.2-0.1-0.3-0.1c-0.1-0.1-0.2-0.1-0.3-0.2c-0.1-0.1-0.2-0.2-0.3-0.4
			c-0.1-0.2-0.2-0.3-0.2-0.5c-0.1-0.2-0.1-0.3-0.1-0.5c0,0,0-0.1,0-0.2c0-0.1,0-0.2,0.1-0.3c0-0.1,0-0.2,0.1-0.4l0.1-0.4l0.1-0.4
			c0-0.1,0.1-0.2,0.1-0.3c0.1-0.1,0.1-0.3,0.2-0.4c0.1-0.2,0.2-0.3,0.3-0.4c0.1-0.2,0.3-0.3,0.4-0.5s0.3-0.3,0.5-0.5l0.5-0.5
			l0.4-0.4c0.1-0.1,0.2-0.2,0.3-0.3c0.1,0,0.1-0.1,0.2-0.1h0.9c0.1,0,0.3,0,0.4,0.1c0.1,0,0.3,0.1,0.4,0.1c0.1,0.1,0.3,0.1,0.4,0.2
			c0.1,0.1,0.3,0.2,0.4,0.3c0.1,0.1,0.3,0.3,0.4,0.5c0.1,0.2,0.3,0.4,0.4,0.6l0.1,0.2l0.1,0.2c0,0.1,0.1,0.2,0.1,0.2
			c0,0.1,0,0.1,0,0.2c0,0.2,0,0.5-0.1,0.7c-0.1,0.3-0.2,0.5-0.4,0.7c-0.2,0.2-0.3,0.5-0.5,0.7c-0.2,0.2-0.4,0.4-0.7,0.6
			c-0.2,0.2-0.5,0.4-0.8,0.5c-0.3,0.2-0.5,0.3-0.8,0.4c-0.3,0.1-0.5,0.2-0.8,0.3C15.9,20.2,15.7,20.2,15.5,20.2z M17.6,14.4
			c-0.1,0-0.2,0-0.3,0.1c-0.1,0-0.2,0.1-0.2,0.1L17,14.6l0,0.1l-0.1,0.1h-0.1h-0.1c0,0-0.1,0-0.1,0l-0.1-0.1c0,0,0-0.1-0.1-0.1
			c-0.2,0.1-0.3,0.3-0.5,0.4l-0.4,0.4c-0.1,0.1-0.3,0.3-0.4,0.5c-0.1,0.2-0.2,0.3-0.3,0.5c0,0.1-0.1,0.2-0.2,0.3s-0.1,0.3-0.2,0.4
			s-0.1,0.3-0.1,0.5c0,0.2,0,0.3-0.1,0.5c0,0.1,0,0.3,0.1,0.4c0,0.1,0.1,0.3,0.2,0.4c0.1,0.1,0.2,0.2,0.3,0.3
			c0.1,0.1,0.3,0.1,0.4,0.1c0.1,0,0.1,0,0.2,0l0.3-0.1l0.3-0.1l0.3-0.1l0.3-0.1c0.1,0,0.1-0.1,0.2-0.1l0.3-0.2l0.4-0.2l0.4-0.3
			c0.1-0.1,0.3-0.2,0.4-0.3s0.3-0.2,0.4-0.3c0.1-0.1,0.2-0.2,0.3-0.4c0.1-0.1,0.2-0.3,0.2-0.4c0.1-0.1,0.1-0.3,0.1-0.4
			c0-0.1,0-0.3-0.1-0.4c0-0.2-0.1-0.3-0.2-0.5c-0.2-0.3-0.4-0.6-0.7-0.8c-0.1-0.1-0.3-0.2-0.4-0.3C17.9,14.4,17.8,14.4,17.6,14.4z"
			/>
		<path class="st0" d="M27.3,16.1c0,0.4-0.2,0.9-0.4,1.2c-0.3,0.4-0.6,0.8-1,1.1c-0.4,0.3-0.9,0.6-1.4,0.9c-0.4,0.2-0.8,0.4-1.3,0.4
			c-0.4,0.1-0.7,0.1-1.1,0.1c-0.4,0-0.9-0.2-1.2-0.5c-0.3-0.4-0.4-0.8-0.4-1.3c0-0.4,0.1-0.9,0.2-1.3c0.2-0.5,0.4-0.9,0.6-1.3
			c0.2-0.4,0.5-0.7,0.9-1c0.4-0.3,0.8-0.6,1.2-0.8c0.4-0.2,0.8-0.3,1.2-0.3c0.3,0,0.7,0.1,1,0.2c0.3,0.1,0.6,0.3,0.9,0.6l0.3,0.3
			C27.2,15,27.3,15.6,27.3,16.1z M26.5,16.3c0-0.2,0-0.4-0.1-0.6c0-0.2-0.1-0.4-0.2-0.5L26,14.9l-0.2-0.2c-0.1-0.1-0.2-0.2-0.4-0.3
			c-0.1,0.1-0.2,0.2-0.3,0.1c-0.1,0-0.1-0.1-0.2-0.1c-0.1-0.1-0.2-0.1-0.3-0.1c-0.2,0-0.4,0-0.5,0.1c-0.2,0-0.3,0.1-0.5,0.2
			c-0.2,0.1-0.4,0.3-0.6,0.4c-0.4,0.4-0.8,0.8-1.1,1.3c-0.3,0.5-0.5,1-0.5,1.5c0,0.2,0,0.4,0.1,0.6c0,0.2,0.1,0.3,0.3,0.4
			c0.3,0.2,0.6,0.2,0.9,0.2c0.4,0,0.9-0.2,1.3-0.4c0.3-0.2,0.7-0.4,1-0.6l0.3-0.3l0.4-0.3c0.2-0.2,0.4-0.5,0.6-0.7
			C26.4,16.7,26.5,16.5,26.5,16.3z"/>
	</g>
</g>
</svg>
