<?xml version="1.0" encoding="utf-8"?>
<!-- Generator: Adobe Illustrator 24.0.1, SVG Export Plug-In . SVG Version: 6.00 Build 0)  -->
<svg version="1.1" id="Layer_1" xmlns="http://www.w3.org/2000/svg" xmlns:xlink="http://www.w3.org/1999/xlink" x="0px" y="0px"
	 viewBox="0 0 33.7 33.7" style="enable-background:new 0 0 33.7 33.7;" xml:space="preserve">
<style type="text/css">
	.st0{fill:#1D1D1B;}
</style>
<title>SWAP</title>
<g id="Layer_2_1_">
	<g id="Layer_3">
		<path class="st0" d="M14.9,23.9c-0.1-0.1-0.2-0.2-0.3-0.3c-0.1,0-0.1,0-0.2,0h-1.9V10.2h4.3c0.3,0,0.5-0.2,0.5-0.5V4.8
			c0-0.3-0.2-0.5-0.5-0.5H12c-2.9,0-5.3,2.4-5.3,5.3v13.9H4.8c-0.1,0-0.1,0-0.2,0c-0.1,0.1-0.2,0.2-0.3,0.3c0,0.1,0,0.3,0,0.4
			c0,0.1,0.1,0.1,0.1,0.2l4.8,4.8c0.1,0.1,0.2,0.2,0.4,0.2c0.1,0,0.3-0.1,0.4-0.2l4.8-4.8c0-0.1,0.1-0.1,0.1-0.2
			C15,24.1,15,24,14.9,23.9z M12,5.3h4.3v3.8H12c-0.3,0-0.5,0.2-0.5,0.5v14.4c0,0.3,0.2,0.5,0.5,0.5h1.1l-3.5,3.5l-3.5-3.5h1.1
			c0.3,0,0.5-0.2,0.5-0.5V9.6C7.8,7.3,9.7,5.4,12,5.3z"/>
		<path class="st0" d="M29.4,9.8c0-0.1,0-0.3,0-0.4c0-0.1-0.1-0.1-0.1-0.2l-4.8-4.8c-0.2-0.2-0.5-0.2-0.8,0l-4.8,4.8
			c0,0.1-0.1,0.1-0.1,0.2c0,0.1,0,0.3,0,0.4c0.1,0.1,0.2,0.2,0.3,0.3c0.1,0,0.1,0,0.2,0h1.9v13.4h-4.3c-0.3,0-0.5,0.2-0.5,0.5v0v4.8
			c0,0.3,0.2,0.5,0.5,0.5h0h4.8c2.9,0,5.3-2.4,5.3-5.4V10.2h1.9c0.1,0,0.1,0,0.2,0C29.2,10.1,29.3,10,29.4,9.8z M21.7,28.4h-4.3
			v-3.8h4.3c0.3,0,0.5-0.2,0.5-0.5V9.6c0-0.3-0.2-0.5-0.5-0.5h-1.1l3.5-3.5l3.5,3.5h-1.1c-0.3,0-0.5,0.2-0.5,0.5v14.4
			C25.9,26.4,24,28.4,21.7,28.4z"/>
	</g>
</g>
</svg>
