<?xml version="1.0" encoding="utf-8"?>
<!-- Generator: Adobe Illustrator 24.0.1, SVG Export Plug-In . SVG Version: 6.00 Build 0)  -->
<svg version="1.1" id="Layer_1" xmlns="http://www.w3.org/2000/svg" xmlns:xlink="http://www.w3.org/1999/xlink" x="0px" y="0px"
	 viewBox="0 0 33.7 33.7" style="enable-background:new 0 0 33.7 33.7;" xml:space="preserve">
<style type="text/css">
	.st0{fill:#1D1D1B;}
</style>
<title>BOMB</title>
<g id="Layer_2_1_">
	<g id="Layer_3">
		<path class="st0" d="M28.9,11.5c-1.6,0.1-2.9,1.4-2.9,2.9v4.8c0,1-0.8,1.9-1.9,1.9c-1,0-1.9-0.8-1.9-1.9c0,0,0,0,0,0V9.6
			c-0.1-3-2.6-5.3-5.6-5.1c-2.8,0.1-5,2.3-5.1,5.1v1.9H9.6c-0.3,0-0.5,0.2-0.5,0.5v2c-2.7,0.3-4.8,2.6-4.8,5.3v4.8
			c0,3,2.4,5.3,5.3,5.4h4.8c3,0,5.3-2.4,5.4-5.4v-4.9c0-2.7-2.1-5-4.8-5.3v-2c0-0.3-0.2-0.5-0.5-0.5h-1.9V9.6
			c0.1-2.4,2.1-4.2,4.5-4.1c2.2,0.1,4,1.9,4.1,4.1v9.6c0,1.6,1.3,2.9,2.9,2.9s2.9-1.3,2.9-2.9v-4.8c0-1,0.8-1.9,1.9-1.9
			c0.3,0,0.6-0.2,0.6-0.5s-0.2-0.6-0.5-0.6C29,11.5,28.9,11.5,28.9,11.5z M18.7,19.3v4.8c0,2.4-1.9,4.3-4.3,4.3h0H9.6
			c-2.4,0-4.3-1.9-4.3-4.3l0,0v-4.8c0-2.4,1.9-4.3,4.3-4.3c0.3,0,0.5-0.2,0.5-0.5v-1.9h3.7v1.9c0,0.3,0.2,0.5,0.5,0.5
			C16.8,15,18.7,16.9,18.7,19.3L18.7,19.3z"/>
	</g>
</g>
</svg>
