<?xml version="1.0" encoding="utf-8"?>
<!-- Generator: Adobe Illustrator 24.0.1, SVG Export Plug-In . SVG Version: 6.00 Build 0)  -->
<svg version="1.1" id="Layer_1" xmlns="http://www.w3.org/2000/svg" xmlns:xlink="http://www.w3.org/1999/xlink" x="0px" y="0px"
	 viewBox="0 0 33.7 33.7" style="enable-background:new 0 0 33.7 33.7;" xml:space="preserve">
<style type="text/css">
	.st0{fill:#1D1D1B;}
</style>
<title>DOUBLE</title>
<g id="Layer_2_1_">
	<g id="Layer_3">
		<path class="st0" d="M10,14.1c-0.2-0.2-0.5-0.2-0.8,0l-2,2l-2-2c-0.2-0.2-0.5-0.2-0.7,0c0,0,0,0,0,0c-0.2,0.2-0.2,0.5,0,0.8l2,2
			l-2,2c-0.2,0.2-0.2,0.5,0,0.8c0.1,0.1,0.2,0.2,0.4,0.2c0.1,0,0.3-0.1,0.4-0.2l2-2l2,2c0.1,0.1,0.2,0.2,0.4,0.2
			c0.1,0,0.3-0.1,0.4-0.2c0.2-0.2,0.2-0.5,0-0.8l-2-2l2-2C10.2,14.6,10.2,14.3,10,14.1z"/>
		<path class="st0" d="M28.9,19.8c0.3,0,0.5-0.2,0.5-0.5v0V9.6c0-3-2.4-5.3-5.4-5.3h-4.8c-3,0-5.3,2.4-5.4,5.3
			c0,0.3,0.2,0.5,0.5,0.5h9.1v3.7h-4.3c-3,0-5.3,2.4-5.4,5.3v9.6c0,0.3,0.2,0.5,0.5,0.5h0h14.4c0.3,0,0.5-0.2,0.5-0.5v0v-4.8
			c0-0.3-0.2-0.5-0.5-0.5h0h-9.1v-3.7H28.9z M19.3,15h4.8c0.3,0,0.5-0.2,0.5-0.5l0,0V9.6c0-0.3-0.2-0.5-0.5-0.5l0,0H15
			c0.3-2.1,2.1-3.7,4.2-3.8H24c2.4,0,4.3,1.9,4.3,4.3c0,0,0,0,0,0v9.1h-9.1c-0.3,0-0.5,0.2-0.5,0.5c0,0,0,0,0,0v4.8
			c0,0.3,0.2,0.5,0.5,0.5c0,0,0,0,0,0h9.1v3.8H15v-9.1C15,16.9,16.9,15,19.3,15z"/>
	</g>
</g>
</svg>
