<?xml version="1.0" encoding="utf-8"?>
<!-- Generator: Adobe Illustrator 24.0.1, SVG Export Plug-In . SVG Version: 6.00 Build 0)  -->
<svg version="1.1" id="Layer_1" xmlns="http://www.w3.org/2000/svg" xmlns:xlink="http://www.w3.org/1999/xlink" x="0px" y="0px"
	 viewBox="0 0 33.7 33.7" style="enable-background:new 0 0 33.7 33.7;" xml:space="preserve">
<style type="text/css">
	.st0{fill:#1D1D1B;}
</style>
<title>MIRROR</title>
<g id="Layer_2_1_">
	<g id="Layer_3">
		<path class="st0" d="M24.1,4.3H9.6C8,4.3,6.7,5.6,6.7,7.2v19.3c0,1.6,1.3,2.9,2.9,2.9l0,0h14.4c1.6,0,2.9-1.3,2.9-2.9V7.2
			C27,5.6,25.7,4.3,24.1,4.3z M24.1,28.4H9.6c-1,0-1.9-0.8-1.9-1.9l0,0V7.2c0-1,0.8-1.9,1.9-1.9h14.4c1,0,1.9,0.8,1.9,1.8
			c0,0,0,0,0,0.1v19.3C26,27.5,25.2,28.4,24.1,28.4C24.1,28.4,24.1,28.4,24.1,28.4z"/>
		<path class="st0" d="M24.1,6.7H9.6c-0.3,0-0.5,0.2-0.5,0.5v19.3c0,0.3,0.2,0.5,0.5,0.5l0,0h14.4c0.3,0,0.5-0.2,0.5-0.5
			c0,0,0,0,0,0V7.2C24.6,6.9,24.4,6.7,24.1,6.7L24.1,6.7z M23.5,7.8V26H10.2V7.8H23.5z"/>
		<path class="st0" d="M12,12.6c0.1,0,0.3-0.1,0.4-0.1l2.4-2.4c0.2-0.2,0.2-0.5,0-0.8c-0.2-0.2-0.5-0.2-0.8,0l-2.4,2.4
			c-0.2,0.2-0.2,0.5,0,0.8C11.8,12.5,11.9,12.6,12,12.6z"/>
		<path class="st0" d="M18.9,24.5c0.1,0.1,0.2,0.1,0.4,0.1c0.1,0,0.3-0.1,0.4-0.1L22,22c0.2-0.2,0.2-0.6-0.1-0.8
			c-0.2-0.2-0.5-0.2-0.7,0l-2.4,2.4C18.7,23.9,18.7,24.2,18.9,24.5z"/>
		<path class="st0" d="M11.7,17.2c0.2,0.2,0.5,0.2,0.7,0c0,0,0,0,0,0l7.2-7.2c0.2-0.2,0.2-0.6-0.1-0.8c-0.2-0.2-0.5-0.2-0.7,0
			l-7.2,7.2C11.5,16.7,11.4,17,11.7,17.2C11.7,17.2,11.7,17.2,11.7,17.2z"/>
	</g>
</g>
</svg>
