<svg xmlns="http://www.w3.org/2000/svg" viewBox="0 0 576 576"><defs><style>.cls-1{fill:#cd5c5c;}.cls-2{fill:none;}</style></defs><title>fn</title><g id="Layer_2" data-name="Layer 2"><g id="Layer_1-2" data-name="Layer 1"><path class="cls-1" d="M286.52,414.31,271.27,231.22a10.7,10.7,0,0,0-11.56-9.76,10.54,10.54,0,0,0-3.57.94L125.85,282.54,139,368.16,271.67,425a10.68,10.68,0,0,0,14.85-10.7Z"/><path class="cls-1" d="M285.76,0C127.46,1-.28,129.71,0,288c0,108.23,59.71,202.5,148,251.71a10.69,10.69,0,0,0,15.75-11L139,368.16,58,333.47A10.68,10.68,0,0,1,57.73,314l68-31.41L101.14,122a10.7,10.7,0,0,1,9-12.19,10.9,10.9,0,0,1,2.91,0l343.88,41.93a10.69,10.69,0,0,1,9.31,11.91c0,.16,0,.33-.07.49L403.25,533.42a10.69,10.69,0,0,0,15.4,11.32C512,497.12,576,400,576,288,576,128.2,445.84-1.2,285.76,0Z"/><rect class="cls-2" width="576" height="576"/></g></g></svg>