<svg xmlns="http://www.w3.org/2000/svg" xmlns:xlink="http://www.w3.org/1999/xlink" viewBox="0 0 311.79 70.06"><defs><style>.cls-1{fill:url(#Gold);}.cls-2{fill:url(#Gold-2);}.cls-3{fill:url(#Gold-3);}.cls-4{fill:url(#Gold-4);}.cls-5{fill:url(#Gold-5);}.cls-6{fill:url(#Gold-6);}.cls-7{fill:url(#Gold-7);}.cls-8{fill:url(#Gold-8);}.cls-9{fill:url(#Gold-9);}</style><linearGradient id="Gold" x1="-6.33" y1="41.61" x2="37.33" y2="16.4" gradientUnits="userSpaceOnUse"><stop offset="0" stop-color="#a87600"/><stop offset="1" stop-color="#ffb70d"/></linearGradient><linearGradient id="Gold-2" x1="29.66" y1="43.48" x2="71.03" y2="19.59" xlink:href="#Gold"/><linearGradient id="Gold-3" x1="67.02" y1="45.34" x2="104.08" y2="23.94" xlink:href="#Gold"/><linearGradient id="Gold-4" x1="109.71" y1="45.65" x2="139.9" y2="28.22" xlink:href="#Gold"/><linearGradient id="Gold-5" x1="141.81" y1="49.62" x2="181.16" y2="26.9" xlink:href="#Gold"/><linearGradient id="Gold-6" x1="181.23" y1="40.24" x2="213.92" y2="21.36" xlink:href="#Gold"/><linearGradient id="Gold-7" x1="210.4" y1="49.62" x2="249.75" y2="26.9" xlink:href="#Gold"/><linearGradient id="Gold-8" x1="238.85" y1="50.91" x2="284.6" y2="24.49" xlink:href="#Gold"/><linearGradient id="Gold-9" x1="274.13" y1="39.19" x2="315.59" y2="15.25" xlink:href="#Gold"/></defs><title>Asset 2</title><g id="Layer_2" data-name="Layer 2"><g id="Layer_1-2" data-name="Layer 1"><path class="cls-1" d="M21,1.16a3.32,3.32,0,0,0-3.43,2,17.29,17.29,0,0,0-.82,6.26v11h9v1.23h-9V51.7h8.35v1.24H.21V51.7H4V21.57H0V20.34H4v-.28q0-9.85,3.77-15T20.34,0q5.82,0,8.35,2.29A7,7,0,0,1,31.23,7.6a6,6,0,0,1-1.58,4.52,5.76,5.76,0,0,1-4.17,1.51,5.58,5.58,0,0,1-4-1.34,4.12,4.12,0,0,1-1.4-3.08,13.68,13.68,0,0,1,.41-3.39h2.6C24,2.72,23.28,1.16,21,1.16Z"/><path class="cls-2" d="M38.61,7.19q4-2.94,11.92-2.94T62.75,7.19Q67,10.13,67,16a15.85,15.85,0,0,1-.34,3.46,9,9,0,0,1-1.54,3.22c-.8,1.12-1.58,2.11-2.33,3A27.87,27.87,0,0,1,59,29.1q-4.11,3.3-8.63,6.54l-5.27,3.8-4.18,3H57.31c3.15,0,5.38-.69,6.71-2.06A12.46,12.46,0,0,0,66.83,34H68l-.68,19H35.12V45L42,38.62q7.05-6.43,10-11.47A21.48,21.48,0,0,0,55,16.06c0-4-.44-6.8-1.3-8.29a4.68,4.68,0,0,0-4.39-2.22c-2,0-3.49.52-4.31,1.57a5,5,0,0,0-1.23,3,7.31,7.31,0,0,0,.41,2.54h2.05a9.62,9.62,0,0,1,.55,3.46,4.48,4.48,0,0,1-1.71,3.49,6.7,6.7,0,0,1-4.52,1.47,5.4,5.4,0,0,1-4.35-1.81,6.79,6.79,0,0,1-1.54-4.56A9,9,0,0,1,38.61,7.19Z"/><path class="cls-3" d="M94.28,22.26q-2.53,0-4.46,3.28a15.32,15.32,0,0,0-1.91,7.81V51.7h4.86v1.24H71.4V51.7h3.77V21.57H71.4V20.34H87.91v6.57a9.23,9.23,0,0,1,3.42-5.37,9.38,9.38,0,0,1,5.75-1.89,7.53,7.53,0,0,1,5.24,1.82,6.53,6.53,0,0,1,2,5.13,7.73,7.73,0,0,1-1.5,5.11,5.76,5.76,0,0,1-4.63,1.78,5.27,5.27,0,0,1-4.59-2.06q-1.47-2.05-.37-5.68h2.46C96.85,23.42,96.38,22.26,94.28,22.26Z"/><path class="cls-4" d="M112.17,49.07q-4.41-4.56-4.42-12.67t5-12.43q5-4.32,12.63-4.32,15.56,0,14.93,15.62H121v2.67q0,6.7,1.71,10.13a6.1,6.1,0,0,0,6,3.43q8,0,10.41-8.49l1.23.2a14.14,14.14,0,0,1-4.69,7.67q-3.39,2.74-10.17,2.74Q116.59,53.62,112.17,49.07ZM121,33.9h7V30.54a28.67,28.67,0,0,0-.65-7.57,2.57,2.57,0,0,0-2.6-2A3.05,3.05,0,0,0,122,23.11q-.92,2.16-.92,7.43Z"/><path class="cls-5" d="M143.72,20.34h16.5v6.3a11.37,11.37,0,0,1,3.36-5.07c1.5-1.28,3.79-1.92,6.85-1.92q10.6,0,10.61,11.44V51.7h3.84v1.24H165.49V51.7h2.81V29.45c0-2.74-.18-4.51-.55-5.31a2,2,0,0,0-2-1.2q-2.19,0-3.87,2.88a13.59,13.59,0,0,0-1.68,7V51.7h2.95v1.24H143.72V51.7h3.76V21.57h-3.76Z"/><path class="cls-6" d="M188.29,20.34h16.78V51.7h3.83v1.24H188.56V51.7h3.77V21.57h-4Zm10.34-4.73c-2.42,0-4.14-.61-5.17-1.85a6.89,6.89,0,0,1-1.54-4.58,6.31,6.31,0,0,1,1.68-4.52,6.66,6.66,0,0,1,5.1-1.78,7.53,7.53,0,0,1,5.2,1.6,5.88,5.88,0,0,1,1.78,4.59A6.57,6.57,0,0,1,204,13.83Q202.26,15.61,198.63,15.61Z"/><path class="cls-7" d="M212.31,20.34h16.51v6.3a11.44,11.44,0,0,1,3.35-5.07q2.27-1.92,6.85-1.92,10.62,0,10.62,11.44V51.7h3.83v1.24H234.09V51.7h2.81V29.45c0-2.74-.18-4.51-.55-5.31a2,2,0,0,0-2-1.2q-2.19,0-3.87,2.88a13.69,13.69,0,0,0-1.67,7V51.7h2.94v1.24H212.31V51.7h3.77V21.57h-3.77Z"/><path class="cls-8" d="M274,20.34V47.05q0,11.22-3.87,17.12T257.5,70.06c-3.79,0-6.56-.76-8.32-2.26a6.79,6.79,0,0,1-2.64-5.28,5.92,5.92,0,0,1,1.78-4.62,6.43,6.43,0,0,1,4.46-1.61,5.13,5.13,0,0,1,4,1.47A4.77,4.77,0,0,1,258.12,61a14.24,14.24,0,0,1-.41,3.42H255.1a2.93,2.93,0,0,0-.3,3.15,3.06,3.06,0,0,0,2.87,1.3,2.87,2.87,0,0,0,2.84-2.36q.76-2.37.76-9.76V21.57h-4.45V20.34Zm-6.51-4.73c-2.42,0-4.14-.61-5.17-1.85a6.89,6.89,0,0,1-1.54-4.58,6.31,6.31,0,0,1,1.68-4.52,6.66,6.66,0,0,1,5.1-1.78,7.53,7.53,0,0,1,5.2,1.6,5.88,5.88,0,0,1,1.78,4.59,6.57,6.57,0,0,1-1.71,4.76Q271.13,15.61,267.5,15.61Z"/><path class="cls-9" d="M298,36.91c0-4.34-.38-7.37-1.13-9.11s-2.45-2.6-5.1-2.6a16.69,16.69,0,0,0-8.7,2.95l-1.16-.55V5.75L283,4.93q4.19.62,12.67,1.47t9.83.86a2.49,2.49,0,0,0,1.92-.65,5.63,5.63,0,0,0,1-2.23l1,.14Q308.37,15,306.73,17a2.86,2.86,0,0,1-2.26,1,29.86,29.86,0,0,1-5.76-1.16l-14.92-3.91-.35,13.29a21.7,21.7,0,0,1,10.34-2.67,28.27,28.27,0,0,1,8.91,1.2,12.55,12.55,0,0,1,5.48,3.32,14.17,14.17,0,0,1,3.62,9.79,14,14,0,0,1-5.23,11.54q-5.25,4.22-14.42,4.21a20.36,20.36,0,0,1-9.11-2,9.53,9.53,0,0,1-3.66-3.33,8.89,8.89,0,0,1-1.41-5,6.93,6.93,0,0,1,1.61-4.7A5.61,5.61,0,0,1,284,36.71a6.54,6.54,0,0,1,4.45,1.4,4.62,4.62,0,0,1,1.61,3.63,10.47,10.47,0,0,1-.62,3.8h-2.26a7.41,7.41,0,0,0-.41,2.57A4.26,4.26,0,0,0,288,50.92a4.31,4.31,0,0,0,3.43,1.33,6.6,6.6,0,0,0,3.42-.72,5.21,5.21,0,0,0,1.78-1.74,9.44,9.44,0,0,0,1-3.22A83,83,0,0,0,298,36.91Z"/></g></g></svg>