<?xml version="1.0" encoding="utf-8"?>
<!-- Generator: Adobe Illustrator 24.0.1, SVG Export Plug-In . SVG Version: 6.00 Build 0)  -->
<svg version="1.1" id="Layer_1" xmlns="http://www.w3.org/2000/svg" xmlns:xlink="http://www.w3.org/1999/xlink" x="0px" y="0px"
	 viewBox="0 0 33.7 33.7" style="enable-background:new 0 0 33.7 33.7;" xml:space="preserve">
<style type="text/css">
	.st0{fill:#1D1D1B;}
</style>
<title>BLACKBEARD</title>
<g id="Layer_2_1_">
	<g id="Layer_3">
		<path class="st0" d="M24.6,9.1c-0.2-1.2-1.2-2.2-2.4-2.4c-0.3-1.6-1.8-2.7-3.4-2.4c-0.8,0.1-1.5,0.6-1.9,1.2
			c-0.9-1.3-2.8-1.7-4.1-0.7c-0.6,0.5-1.1,1.1-1.2,1.9c-1.2,0.2-2.2,1.2-2.4,2.4c-2.7,0.2-4.9,2.5-4.9,5.3v4.8c0,1.4,1,2.6,2.4,2.9
			v1.9C6.7,25.7,8,27,9.6,27h1.9c0.3,1.4,1.5,2.4,2.9,2.4h4.8c1.4,0,2.6-1,2.9-2.4h1.9c1.6,0,2.9-1.3,2.9-2.9v-1.9
			c1.4-0.3,2.4-1.5,2.4-2.9v-4.8C29.4,11.7,27.3,9.4,24.6,9.1z M19.3,13.9h-4.8c-2.1,0-4-1.6-4.2-3.7h4.2c1,0,1.9-0.5,2.4-1.3
			c0.5,0.8,1.4,1.3,2.4,1.3h4.2C23.2,12.3,21.4,13.9,19.3,13.9z M19.3,5.3c1,0,1.9,0.8,1.9,1.9c0,0.3,0.2,0.5,0.5,0.5
			c0.8,0,1.6,0.5,1.8,1.3h-4.2c-1-0.1-1.8-1-1.7-2C17.6,6.2,18.3,5.4,19.3,5.3z M12,7.8c0.3,0,0.5-0.2,0.5-0.5c0,0,0,0,0,0
			c0-1,0.8-1.9,1.9-1.9s1.9,0.8,1.9,1.9c0,1-0.8,1.9-1.8,1.9h-4.2C10.5,8.3,11.2,7.8,12,7.8z M26.5,21.1c-0.3,0-0.5,0.2-0.5,0.5v2.4
			c0,1-0.8,1.9-1.8,1.9c0,0,0,0-0.1,0h-2.4c-0.3,0-0.5,0.2-0.5,0.5c0,1-0.8,1.9-1.9,1.9h-4.8c-1,0-1.9-0.8-1.9-1.9
			c0-0.3-0.2-0.5-0.5-0.5c0,0,0,0-0.1,0H9.6c-1,0-1.9-0.8-1.9-1.9l0,0v-2.5c0-0.3-0.2-0.5-0.5-0.5c-1,0-1.9-0.8-1.9-1.9v-4.8
			c0-2.2,1.6-4,3.8-4.2c0.3,2.7,2.6,4.8,5.3,4.8h4.8c2.7,0,5-2.1,5.3-4.8c2.2,0.2,3.8,2.1,3.8,4.2v4.8
			C28.3,20.3,27.5,21.1,26.5,21.1z"/>
		<path class="st0" d="M21.7,21.1c-0.3,0-0.5,0.2-0.5,0.5c0,0,0,0,0,0c0,1-0.8,1.9-1.9,1.9c-0.3,0-0.5,0.2-0.5,0.5
			c-0.1,1-1,1.8-2,1.7C15.8,25.7,15,25,15,24.1c0-0.3-0.2-0.5-0.5-0.5c-1,0-1.9-0.8-1.9-1.9c0-0.3-0.2-0.5-0.5-0.5l0,0
			c-0.3,0-0.5,0.2-0.5,0.5c0,1.4,1.1,2.7,2.5,2.9c0.2,1.6,1.7,2.7,3.3,2.4c1.3-0.2,2.2-1.2,2.4-2.4c1.4-0.2,2.5-1.5,2.5-2.9
			C22.2,21.4,22,21.1,21.7,21.1C21.7,21.1,21.7,21.1,21.7,21.1z"/>
		<path class="st0" d="M24.1,16.3c-0.3,0-0.5,0.2-0.5,0.5v0c0,1-0.8,1.9-1.9,1.9h0c-0.3,0-0.5,0.3-0.5,0.6c0,0.2,0.2,0.4,0.5,0.5
			c1.6,0,2.9-1.3,2.9-2.9l0,0C24.6,16.6,24.4,16.3,24.1,16.3z"/>
		<path class="st0" d="M12.6,19.3c0-0.3-0.2-0.5-0.5-0.5l0,0c-1,0-1.9-0.8-1.9-1.9l0,0c0-0.3-0.2-0.6-0.5-0.6s-0.6,0.2-0.6,0.5
			c0,0,0,0.1,0,0.1c0,1.6,1.3,2.9,2.9,2.9C12.3,19.8,12.5,19.6,12.6,19.3C12.6,19.3,12.6,19.3,12.6,19.3z"/>
	</g>
</g>
</svg>
