<?xml version="1.0" encoding="utf-8"?>
<!-- Generator: Adobe Illustrator 24.0.1, SVG Export Plug-In . SVG Version: 6.00 Build 0)  -->
<svg version="1.1" id="Layer_1" xmlns="http://www.w3.org/2000/svg" xmlns:xlink="http://www.w3.org/1999/xlink" x="0px" y="0px"
	 viewBox="0 0 33.7 33.7" style="enable-background:new 0 0 33.7 33.7;" xml:space="preserve">
<style type="text/css">
	.st0{fill:#1D1D1B;}
</style>
<title>CHOOSE</title>
<g id="Layer_2_1_">
	<g id="Layer_3">
		<path class="st0" d="M24.1,15h4.8c0.3,0,0.5-0.2,0.5-0.5V9.6c0-3-2.4-5.3-5.4-5.3H9.6c-3,0-5.3,2.4-5.3,5.3v14.4
			c0,3,2.4,5.3,5.3,5.4h14.4c3,0,5.3-2.4,5.4-5.4v-4.8c0-0.3-0.2-0.5-0.5-0.5h-4.8c-0.3,0-0.5,0.2-0.5,0.5v4.3H10.2V10.2h13.4v4.3
			C23.5,14.7,23.8,15,24.1,15C24.1,15,24.1,15,24.1,15z M24.1,28.4H9.6c-2.4,0-4.3-1.9-4.3-4.3l0,0V9.6c0-2.4,1.9-4.3,4.3-4.3l0,0
			h14.4c2.4,0,4.3,1.9,4.3,4.3l0,0v4.3h-3.8V9.6c0-0.3-0.2-0.5-0.5-0.5l0,0H9.6c-0.3,0-0.5,0.2-0.5,0.5v14.4c0,0.3,0.2,0.5,0.5,0.5
			l0,0h14.4c0.3,0,0.5-0.2,0.5-0.5c0,0,0,0,0,0v-4.3h3.8v4.3C28.4,26.4,26.4,28.4,24.1,28.4C24.1,28.4,24.1,28.4,24.1,28.4
			L24.1,28.4z"/>
	</g>
</g>
</svg>
