<?xml version="1.0" encoding="utf-8"?>
<!-- Generator: Adobe Illustrator 24.0.1, SVG Export Plug-In . SVG Version: 6.00 Build 0)  -->
<svg version="1.1" id="Layer_1" xmlns="http://www.w3.org/2000/svg" xmlns:xlink="http://www.w3.org/1999/xlink" x="0px" y="0px"
	 viewBox="0 0 33.7 33.7" style="enable-background:new 0 0 33.7 33.7;" xml:space="preserve">
<style type="text/css">
	.st0{fill:#1D1D1B;}
</style>
<title>LARGE_CASH</title>
<g id="Layer_2_1_">
	<g id="Layer_3">
		<path class="st0" d="M7.7,16.9c0,0.2-0.1,0.4-0.2,0.5l-0.2,0.3c0,0.1-0.1,0.2-0.1,0.2c-0.1,0.2-0.3,0.3-0.4,0.4
			c-0.1,0.1-0.3,0.2-0.5,0.3C6.2,18.8,6,18.9,5.8,19c-0.2,0.1-0.4,0.2-0.7,0.2c-0.5,0.1-0.9,0.2-1.4,0.2H3.4l-0.4,0
			c-0.2,0-0.4-0.1-0.7-0.1c-0.1,0-0.1,0-0.2-0.1c0,0-0.1-0.1-0.1-0.1C2.1,19,2,18.9,2,18.9c0-0.1,0-0.1,0-0.2c0-0.1,0-0.3,0.1-0.4
			c0.1-0.1,0.2-0.1,0.3-0.1h0.1l0.2,0.1l0.2,0.1h0.1c0.3,0.1,0.6,0.2,0.9,0.2c0.4,0,0.9-0.1,1.3-0.2c0.4-0.1,0.7-0.2,1-0.5
			c0.5-0.4,0.7-0.7,0.7-0.9c0-0.3-0.2-0.6-0.5-0.7c-0.4-0.1-0.8-0.2-1.2-0.2c-0.5,0-1.1,0.1-1.5,0.4c-0.2,0-0.3-0.1-0.3-0.2
			c0-0.1,0-0.1,0-0.2c0-0.1,0.1-0.1,0.1-0.2l0.2-0.1l0.3-0.2c0.3-0.3,0.6-0.5,0.9-0.8s0.6-0.5,0.9-0.7H5.5H5l-0.6,0.1l-0.7,0.1H3.1
			c-0.2,0-0.4-0.1-0.6-0.2c-0.1-0.1-0.2-0.4-0.2-0.6c0-0.1,0-0.2,0.1-0.3C2.4,13.1,2.5,13,2.6,13c0.1,0,0.2,0,0.3,0.1L3,13.2
			l0.1,0.1c0.1,0,0.2,0.1,0.3,0.1c0.2,0,0.6,0,1.2-0.1l0.4-0.1h0.6h0.5h0.3c0.4,0,0.6,0.1,0.6,0.4c0,0.1,0,0.3-0.1,0.4
			c-0.1,0.1-0.2,0.2-0.3,0.2l-0.4,0.3l-0.4,0.3L5.4,15c-0.1,0.1-0.2,0.1-0.3,0.2c-0.1,0.1-0.2,0.2-0.3,0.3h0.4h0.3
			c0.3,0,0.5,0,0.8,0.1c0.2,0.1,0.4,0.2,0.6,0.3c0.2,0.2,0.3,0.3,0.5,0.5C7.7,16.6,7.7,16.7,7.7,16.9z"/>
		<path class="st0" d="M10.3,19c0,0.2-0.1,0.3-0.2,0.5c-0.1,0.2-0.2,0.3-0.3,0.5c-0.2,0.2-0.4,0.3-0.6,0.5H9.2H9.1H9H8.9
			c-0.2,0.1-0.4,0.2-0.6,0.2c-0.1,0-0.1-0.1-0.1-0.2c0,0,0-0.1,0-0.1c0.4-0.1,0.8-0.3,1.1-0.5c0.1-0.1,0.1-0.2,0.2-0.3
			c0.1-0.1,0.1-0.2,0.1-0.3c0-0.2,0-0.3-0.1-0.5c0-0.1,0-0.1-0.1-0.2c0,0-0.1-0.1-0.1-0.2c0-0.1,0-0.1,0.1-0.2
			c0-0.1,0.1-0.1,0.1-0.1c0.1,0,0.2,0,0.3,0.1c0.1,0,0.2,0.1,0.2,0.1C10.2,18.4,10.3,18.7,10.3,19z"/>
		<path class="st0" d="M12.9,19.8h-0.2h-0.3L12,19.7c-0.1,0-0.2-0.1-0.3-0.1c-0.1-0.1-0.2-0.1-0.3-0.2c-0.1-0.1-0.2-0.2-0.3-0.4
			c-0.1-0.2-0.2-0.3-0.2-0.5c-0.1-0.2-0.1-0.3-0.1-0.5c0,0,0-0.1,0-0.2c0-0.1,0-0.2,0.1-0.3c0-0.1,0.1-0.2,0.1-0.4l0.1-0.4l0.1-0.4
			l0.1-0.3c0-0.1,0.1-0.3,0.2-0.4c0.1-0.2,0.2-0.3,0.3-0.5c0.1-0.2,0.3-0.3,0.4-0.5l0.5-0.5l0.5-0.5c0.1-0.1,0.3-0.3,0.4-0.4
			c0.1-0.1,0.2-0.2,0.3-0.3c0.1,0,0.1-0.1,0.2-0.1H15l0.4,0.1c0.1,0,0.3,0.1,0.4,0.1c0.1,0.1,0.3,0.1,0.4,0.2
			c0.1,0.1,0.3,0.2,0.4,0.3c0.1,0.1,0.3,0.3,0.4,0.5c0.1,0.2,0.3,0.4,0.4,0.6l0.1,0.2l0.1,0.2c0,0.1,0.1,0.2,0.1,0.2
			c0,0.1,0,0.1,0,0.2c0,0.2,0,0.5-0.1,0.7c-0.1,0.3-0.2,0.5-0.4,0.7c-0.2,0.2-0.3,0.5-0.5,0.7c-0.2,0.2-0.4,0.4-0.7,0.6
			c-0.2,0.2-0.5,0.4-0.8,0.5c-0.3,0.1-0.5,0.3-0.8,0.4c-0.3,0.1-0.5,0.2-0.8,0.3C13.3,19.8,13.1,19.8,12.9,19.8z M15,14
			c-0.1,0-0.2,0-0.3,0.1c-0.1,0-0.2,0.1-0.2,0.1l-0.1,0.1l-0.1,0.1h-0.1h-0.1h-0.1H14l-0.1-0.1c0,0,0-0.1-0.1-0.1
			c-0.1,0.2-0.3,0.3-0.4,0.5L13,15.1c-0.1,0.1-0.3,0.3-0.4,0.5c-0.1,0.2-0.2,0.3-0.3,0.5c0,0.1-0.1,0.2-0.2,0.3s-0.1,0.3-0.2,0.4
			s-0.1,0.3-0.1,0.5c0,0.2,0,0.3,0,0.5c0,0.1,0,0.3,0.1,0.4c0,0.1,0.1,0.3,0.2,0.4c0.1,0.1,0.2,0.2,0.3,0.3c0.1,0.1,0.3,0.1,0.4,0.1
			H13l0.3,0l0.3-0.1l0.3-0.1l0.3-0.1c0.1,0,0.1-0.1,0.2-0.1l0.3-0.2l0.4-0.2l0.4-0.3l0.4-0.3c0.1-0.1,0.3-0.2,0.4-0.4
			c0.1-0.1,0.2-0.2,0.3-0.4c0.1-0.1,0.2-0.3,0.2-0.4c0.1-0.1,0.1-0.3,0.1-0.4c0-0.1,0-0.3-0.1-0.4c-0.1-0.2-0.1-0.3-0.2-0.5
			c-0.1-0.2-0.2-0.3-0.3-0.4c-0.1-0.1-0.2-0.3-0.4-0.4c-0.1-0.1-0.3-0.2-0.4-0.3C15.4,14,15.2,14,15,14z"/>
		<path class="st0" d="M19.9,19.8h-0.2h-0.3L19,19.7c-0.1,0-0.2-0.1-0.3-0.1c-0.1-0.1-0.2-0.1-0.3-0.2c-0.1-0.1-0.2-0.2-0.3-0.4
			c-0.1-0.1-0.2-0.3-0.2-0.5c-0.1-0.2-0.1-0.3-0.1-0.5c0-0.1,0-0.1,0-0.2c0-0.1,0-0.2,0-0.3s0-0.2,0.1-0.4l0.1-0.4
			c0-0.1,0.1-0.2,0.1-0.4c0-0.1,0-0.2,0.1-0.3c0-0.1,0.1-0.3,0.2-0.4c0.1-0.2,0.2-0.3,0.3-0.5c0.1-0.2,0.3-0.3,0.4-0.5
			s0.3-0.3,0.5-0.5l0.5-0.5c0.1-0.1,0.3-0.3,0.4-0.4c0.1-0.1,0.2-0.2,0.4-0.3c0.1,0,0.1-0.1,0.2-0.1h1l0.4,0.1
			c0.1,0,0.3,0.1,0.4,0.1c0.1,0.1,0.3,0.1,0.4,0.2c0.1,0.1,0.3,0.2,0.4,0.3c0.1,0.1,0.3,0.3,0.4,0.5c0.1,0.2,0.3,0.4,0.4,0.6
			c0,0,0,0.1,0.1,0.2c0,0.1,0.1,0.1,0.1,0.2c0,0.1,0.1,0.2,0.1,0.2c0,0.1,0,0.1,0,0.2c0,0.2,0,0.5-0.1,0.7c-0.1,0.3-0.2,0.5-0.4,0.7
			c-0.2,0.2-0.4,0.5-0.6,0.7c-0.2,0.2-0.4,0.4-0.7,0.6c-0.2,0.2-0.5,0.4-0.8,0.5c-0.3,0.1-0.5,0.3-0.8,0.4c-0.3,0.1-0.5,0.2-0.8,0.3
			C20.3,19.8,20.1,19.8,19.9,19.8z M22,14c-0.1,0-0.2,0-0.3,0.1c-0.1,0-0.2,0.1-0.2,0.1l-0.1,0.1l-0.1,0.1h-0.1h-0.1h-0.1H21
			l-0.1-0.1c0,0,0-0.1,0-0.1c-0.1,0.2-0.3,0.3-0.4,0.5c-0.1,0.1-0.3,0.3-0.4,0.4s-0.3,0.3-0.4,0.5c-0.1,0.2-0.2,0.3-0.3,0.5
			c0,0.1-0.1,0.2-0.2,0.3c-0.1,0.1-0.1,0.3-0.2,0.4c-0.1,0.2-0.1,0.3-0.1,0.5c0,0.2-0.1,0.3-0.1,0.5c0,0.1,0,0.3,0.1,0.4
			c0,0.1,0.1,0.3,0.2,0.4c0.1,0.1,0.2,0.2,0.3,0.3c0.1,0.1,0.3,0.1,0.4,0.1l0.2,0l0.3,0l0.3-0.1l0.3-0.1l0.3-0.1
			c0.1,0,0.1-0.1,0.2-0.1l0.3-0.2l0.4-0.2l0.4-0.3c0.1-0.1,0.3-0.2,0.4-0.3c0.1-0.1,0.3-0.2,0.4-0.4c0.1-0.1,0.2-0.2,0.3-0.4
			c0.1-0.1,0.2-0.3,0.2-0.4c0.1-0.1,0.1-0.3,0.1-0.4c0-0.1,0-0.3-0.1-0.4c0-0.2-0.1-0.3-0.2-0.5c-0.1-0.2-0.2-0.3-0.3-0.4
			c-0.1-0.1-0.2-0.3-0.4-0.4c-0.1-0.1-0.3-0.2-0.4-0.3C22.4,14,22.2,14,22,14z"/>
		<path class="st0" d="M31.7,15.7c0,0.4-0.1,0.9-0.4,1.2c-0.3,0.4-0.6,0.8-1,1.1c-0.4,0.3-0.9,0.6-1.4,0.9c-0.4,0.2-0.9,0.4-1.3,0.4
			c-0.4,0-0.7,0.1-1.1,0.1c-0.4,0-0.9-0.2-1.2-0.5c-0.3-0.4-0.4-0.8-0.4-1.3c0-0.4,0.1-0.9,0.2-1.3c0.2-0.5,0.4-0.9,0.6-1.3
			c0.2-0.4,0.6-0.7,0.9-1c0.4-0.3,0.8-0.6,1.2-0.8c0.4-0.2,0.8-0.3,1.2-0.3c0.3,0,0.7,0.1,1,0.2c0.3,0.1,0.6,0.3,0.9,0.6
			c0.1,0.1,0.2,0.2,0.3,0.3C31.6,14.6,31.7,15.2,31.7,15.7z M30.9,15.9c0-0.2,0-0.4-0.1-0.6c0-0.2-0.1-0.4-0.2-0.5
			c-0.1-0.1-0.1-0.1-0.2-0.2l-0.2-0.2c-0.1-0.1-0.2-0.2-0.4-0.3c-0.1,0.1-0.2,0.1-0.3,0.1c-0.1,0-0.1-0.1-0.2-0.1
			c-0.1-0.1-0.2-0.1-0.3-0.1c-0.2,0-0.4,0-0.5,0.1c-0.2,0-0.3,0.1-0.5,0.2c-0.2,0.1-0.4,0.3-0.6,0.5C27,15,26.6,15.5,26.3,16
			c-0.3,0.5-0.4,1-0.5,1.5c0,0.2,0,0.4,0.1,0.6c0,0.2,0.1,0.3,0.3,0.4c0.3,0.2,0.6,0.2,0.9,0.2c0.4,0,0.9-0.1,1.3-0.4
			c0.3-0.2,0.7-0.4,1-0.6l0.3-0.3c0.1-0.1,0.2-0.2,0.4-0.3c0.2-0.2,0.5-0.4,0.6-0.7C30.8,16.4,30.9,16.1,30.9,15.9z"/>
	</g>
</g>
</svg>
