<?xml version="1.0" encoding="utf-8"?>
<!-- Generator: Adobe Illustrator 24.0.1, SVG Export Plug-In . SVG Version: 6.00 Build 0)  -->
<svg version="1.1" id="Layer_1" xmlns="http://www.w3.org/2000/svg" xmlns:xlink="http://www.w3.org/1999/xlink" x="0px" y="0px"
	 viewBox="0 0 33.7 33.7" style="enable-background:new 0 0 33.7 33.7;" xml:space="preserve">
<style type="text/css">
	.st0{fill:#1D1D1B;}
</style>
<title>PARROT</title>
<g id="Layer_2_1_">
	<g id="Layer_3">
		<path class="st0" d="M22.2,24.1c0-3-2.4-5.3-5.4-5.4H12c-0.3,0-0.5,0.2-0.5,0.5c0,3,2.4,5.4,5.4,5.4h4.8
			C21.9,24.6,22.2,24.4,22.2,24.1C22.2,24.1,22.2,24.1,22.2,24.1z M12.6,19.8h4.2c2.1,0,4,1.6,4.2,3.7h-4.2
			C14.7,23.5,12.9,21.9,12.6,19.8z"/>
		<path class="st0" d="M27,23.6v-1.9c0-3-2.4-5.3-5.4-5.4c-2.4,0-4.3-1.9-4.3-4.3c0,0,0,0,0,0V9.6c0-3-2.4-5.4-5.3-5.4
			c-3,0-5.4,2.4-5.4,5.3c0,0,0,0,0,0c0,0.1,0,0.2,0,0.4c-1.5,1-2.4,2.7-2.4,4.5c0,0.3,0.2,0.5,0.5,0.5h1.9v6.7
			c0,2.9,2.4,5.3,5.3,5.3h2.6c-0.4,0.5-0.7,1.2-0.7,1.9c0,0.3,0.2,0.5,0.5,0.5h0h7.2c0.3,0,0.5-0.2,0.5-0.5v0V27h6.7
			c0.3,0,0.5-0.2,0.5-0.5C29.4,25.1,28.4,23.8,27,23.6z M7.5,10.7c0.5-0.3,1-0.4,1.6-0.5v3.7H5.4C5.6,12.6,6.4,11.4,7.5,10.7z
			 M17.4,26.5c0-0.3-0.2-0.5-0.5-0.5H12c-2.4,0-4.3-1.9-4.3-4.3l0,0V15h1.9c0.3,0,0.5-0.2,0.5-0.5V9.6c0-0.3-0.2-0.5-0.5-0.5
			C9,9.1,8.4,9.2,7.8,9.4c0.1-2.4,2-4.2,4.4-4.2s4.2,2,4.2,4.4V12c0,3,2.4,5.3,5.4,5.3c2.4,0,4.3,1.9,4.3,4.2c0,0,0,0.1,0,0.1v2.4
			c0,0.3,0.2,0.5,0.5,0.5c0.8,0,1.5,0.6,1.7,1.4h-9c-0.3,0-0.5,0.3-0.5,0.6c0,0.2,0.2,0.4,0.5,0.5h1.9v1.3h-6.1
			c0.2-0.8,0.9-1.4,1.8-1.4C17.1,27,17.4,26.8,17.4,26.5z"/>
		<path class="st0" d="M13.2,12.6c1,0,1.7-0.8,1.7-1.7c0-1-0.8-1.7-1.7-1.7c-1,0-1.7,0.8-1.7,1.7c0,0,0,0,0,0
			C11.5,11.8,12.3,12.6,13.2,12.6z M13.2,10.2c0.4,0,0.7,0.3,0.7,0.7s-0.3,0.7-0.7,0.7s-0.7-0.3-0.7-0.7S12.9,10.2,13.2,10.2
			L13.2,10.2z"/>
	</g>
</g>
</svg>
