<?xml version="1.0" encoding="utf-8"?>
<!-- Generator: Adobe Illustrator 24.0.1, SVG Export Plug-In . SVG Version: 6.00 Build 0)  -->
<svg version="1.1" id="Layer_1" xmlns="http://www.w3.org/2000/svg" xmlns:xlink="http://www.w3.org/1999/xlink" x="0px" y="0px"
	 viewBox="0 0 33.7 33.7" style="enable-background:new 0 0 33.7 33.7;" xml:space="preserve">
<style type="text/css">
	.st0{fill:#1D1D1B;}
</style>
<title>PRESENT</title>
<g id="Layer_2_1_">
	<g id="Layer_3">
		<path class="st0" d="M26.5,9.1h-4.3V4.8c0-0.3-0.2-0.5-0.5-0.5l0,0c-2.1,0-3.9,1.2-4.8,3.1C16,5.5,14.1,4.3,12,4.3
			c-0.3,0-0.5,0.2-0.5,0.5v4.3H7.2c-0.3,0-0.5,0.2-0.5,0.5v19.3c0,0.3,0.2,0.5,0.5,0.5h19.3c0.3,0,0.5-0.2,0.5-0.5V9.6
			C27,9.3,26.8,9.1,26.5,9.1L26.5,9.1z M18.7,10.2v6.1H15v-6.1H18.7z M15,21.1v-3.8h3.8v3.8H15z M13.9,21.1H7.8v-3.8h6.1L13.9,21.1z
			 M19.8,17.4H26v3.8h-6.2L19.8,17.4z M15,22.2h3.8v6.1H15V22.2z M26,16.3h-6.2v-6.1H26V16.3z M21.1,5.4v3.7h-3.7
			C17.7,7.2,19.2,5.7,21.1,5.4z M16.3,9.1h-3.7V5.4C14.5,5.7,16,7.2,16.3,9.1z M13.9,10.2v6.1H7.8v-6.1H13.9z M7.8,22.2h6.2v6.1H7.8
			L7.8,22.2z M19.8,28.3v-6.1H26v6.1L19.8,28.3z"/>
	</g>
</g>
</svg>
