<?xml version="1.0" encoding="utf-8"?>
<!-- Generator: Adobe Illustrator 24.0.1, SVG Export Plug-In . SVG Version: 6.00 Build 0)  -->
<svg version="1.1" id="Layer_1" xmlns="http://www.w3.org/2000/svg" xmlns:xlink="http://www.w3.org/1999/xlink" x="0px" y="0px"
	 viewBox="0 0 33.7 33.7" style="enable-background:new 0 0 33.7 33.7;" xml:space="preserve">
<style type="text/css">
	.st0{fill:#1D1D1B;}
</style>
<title>SHIELD</title>
<g id="Layer_2_1_">
	<g id="Layer_3">
		<path class="st0" d="M28.9,9.1c-2.4,0-4.3-1.9-4.3-4.3v0c0-0.3-0.2-0.5-0.5-0.5H9.6c-0.3,0-0.5,0.2-0.5,0.5c0,2.4-1.9,4.3-4.3,4.3
			l0,0c-0.3,0-0.5,0.2-0.5,0.5v12c0,3,2.4,5.4,5.3,5.4c0,0,0,0,0,0h1.9c0.3,1.4,1.5,2.4,2.9,2.4h4.8c1.4,0,2.6-1,2.9-2.4h1.9
			c3,0,5.3-2.4,5.4-5.4v-12C29.4,9.4,29.2,9.1,28.9,9.1C28.9,9.1,28.9,9.1,28.9,9.1z M24.1,26h-2.4c-0.3,0-0.5,0.2-0.5,0.5
			c0,1-0.8,1.9-1.9,1.9h-4.8c-1,0-1.9-0.8-1.9-1.9c0-0.3-0.2-0.5-0.5-0.5c0,0,0,0-0.1,0H9.6c-2.4,0-4.3-1.9-4.3-4.3l0,0V10.1
			c2.5-0.2,4.5-2.2,4.8-4.8h13.5c0.2,2.5,2.2,4.5,4.8,4.8v11.6C28.4,24,26.5,26,24.1,26C24.1,26,24.1,26,24.1,26z"/>
		<path class="st0" d="M8.4,11.5c-1,0-1.7,0.8-1.7,1.7S7.5,15,8.4,15s1.7-0.8,1.7-1.7l0,0C10.2,12.3,9.4,11.5,8.4,11.5z M8.4,13.9
			c-0.4,0-0.7-0.3-0.7-0.7s0.3-0.7,0.7-0.7s0.7,0.3,0.7,0.7S8.8,13.9,8.4,13.9L8.4,13.9z"/>
		<path class="st0" d="M13.2,6.7c-1,0-1.7,0.8-1.7,1.8s0.8,1.7,1.8,1.7c1,0,1.7-0.8,1.7-1.7C15,7.5,14.2,6.7,13.2,6.7
			C13.3,6.7,13.2,6.7,13.2,6.7z M13.2,9.1c-0.4,0-0.7-0.3-0.7-0.7s0.3-0.7,0.7-0.7s0.7,0.3,0.7,0.7S13.6,9.1,13.2,9.1L13.2,9.1z"/>
		<path class="st0" d="M8.4,18.7c-1,0-1.7,0.8-1.7,1.7s0.8,1.7,1.7,1.7s1.7-0.8,1.7-1.7l0,0C10.2,19.5,9.4,18.7,8.4,18.7z M8.4,21.1
			c-0.4,0-0.7-0.3-0.7-0.7s0.3-0.7,0.7-0.7s0.7,0.3,0.7,0.7S8.8,21.1,8.4,21.1L8.4,21.1z"/>
		<path class="st0" d="M25.3,18.7c-1,0-1.7,0.8-1.8,1.7c0,1,0.8,1.7,1.7,1.8c1,0,1.7-0.8,1.8-1.7c0,0,0,0,0,0
			C27,19.5,26.2,18.7,25.3,18.7z M25.3,21.1c-0.4,0-0.7-0.3-0.7-0.7s0.3-0.7,0.7-0.7s0.7,0.3,0.7,0.7S25.7,21.1,25.3,21.1L25.3,21.1
			z"/>
		<path class="st0" d="M25.3,11.5c-1,0-1.7,0.8-1.8,1.7s0.8,1.7,1.7,1.8c1,0,1.7-0.8,1.8-1.7c0,0,0,0,0,0
			C27,12.3,26.2,11.5,25.3,11.5z M25.3,13.9c-0.4,0-0.7-0.3-0.7-0.7s0.3-0.7,0.7-0.7s0.7,0.3,0.7,0.7S25.7,13.9,25.3,13.9L25.3,13.9
			z"/>
		<path class="st0" d="M20.5,6.7c-1,0-1.7,0.8-1.7,1.7s0.8,1.7,1.7,1.7s1.7-0.8,1.7-1.7l0,0C22.2,7.5,21.4,6.7,20.5,6.7z M20.5,9.1
			c-0.4,0-0.7-0.3-0.7-0.7s0.3-0.7,0.7-0.7s0.7,0.3,0.7,0.7S20.8,9.1,20.5,9.1L20.5,9.1z"/>
	</g>
</g>
</svg>
