<?xml version="1.0" encoding="utf-8"?>
<!-- Generator: Adobe Illustrator 24.0.1, SVG Export Plug-In . SVG Version: 6.00 Build 0)  -->
<svg version="1.1" id="Layer_1" xmlns="http://www.w3.org/2000/svg" xmlns:xlink="http://www.w3.org/1999/xlink" x="0px" y="0px"
	 viewBox="0 0 33.7 33.7" style="enable-background:new 0 0 33.7 33.7;" xml:space="preserve">
<style type="text/css">
	.st0{fill:#1D1D1B;}
</style>
<title>SHIP</title>
<g id="Layer_2_1_">
	<g id="Layer_3">
		<path class="st0" d="M28.9,18.7h-9.1V15h4.3c0.3,0,0.5-0.2,0.5-0.5l0,0V7.2c0-0.3-0.2-0.5-0.5-0.5l0,0h-4.3V4.8
			c0-0.3-0.2-0.5-0.5-0.5l0,0h-2.4c-0.3,0-0.5,0.2-0.5,0.5c0,0,0,0,0,0v1.9H12c-0.3,0-0.5,0.2-0.5,0.5v7.2c0,0.3,0.2,0.5,0.5,0.5
			c0,0,0,0,0,0h4.3v8.6h-1.8c-2.4,0-4.3-1.9-4.3-4.3l0,0v-2.4c0-0.3-0.2-0.5-0.5-0.5h0H4.8c-0.3,0-0.5,0.2-0.5,0.5l0,0v1.9H2.4
			c-0.3,0-0.6,0.2-0.6,0.5c0,0.3,0.2,0.6,0.5,0.6c0,0,0.1,0,0.1,0h1.9v4.3c0,3,2.4,5.3,5.3,5.4h14.4c1.6,0,2.9-1.3,2.9-3
			c0,0,0,0,0,0v-1.9c1.4-0.3,2.4-1.5,2.4-2.9v-2.4C29.4,19,29.2,18.7,28.9,18.7z M17.4,6.7V5.3h1.3v1.3L17.4,6.7z M23.5,7.8v6.2h-11
			V7.8L23.5,7.8z M27,19.8h1.3v1.3H27V19.8z M26,21.1h-1.4v-1.3H26V21.1z M23.6,21.1h-1.4v-1.3h1.3L23.6,21.1z M21.2,21.1h-1.4v-1.3
			h1.3L21.2,21.1z M18.7,15v8.6h-1.3V15H18.7z M9.1,18.7H7.8v-1.3h1.3V18.7z M6.7,18.7H5.3v-1.3h1.3L6.7,18.7z M24.1,28.4H9.6
			c-2.4,0-4.3-1.9-4.3-4.3l0,0v-4.3h3.8c0.3,2.7,2.6,4.8,5.3,4.8H26v1.9C26,27.5,25.2,28.4,24.1,28.4C24.1,28.4,24.1,28.4,24.1,28.4
			z M26.5,23.5h-6.7v-1.3h8.5C28,23,27.3,23.5,26.5,23.5z"/>
	</g>
</g>
</svg>
