<?xml version="1.0" encoding="utf-8"?>
<!-- Generator: Adobe Illustrator 24.0.1, SVG Export Plug-In . SVG Version: 6.00 Build 0)  -->
<svg version="1.1" id="Layer_1" xmlns="http://www.w3.org/2000/svg" xmlns:xlink="http://www.w3.org/1999/xlink" x="0px" y="0px"
	 viewBox="0 0 68 68" style="enable-background:new 0 0 68 68;" xml:space="preserve">
<style type="text/css">
	.st0{fill:url(#SVGID_1_);}
	.st1{fill:url(#SVGID_2_);}
</style>
<title>Asset 5</title>
<g id="Layer_2_1_">
	<g id="Layer_1-2">
		
			<linearGradient id="SVGID_1_" gradientUnits="userSpaceOnUse" x1="-6.3335" y1="20.8723" x2="37.3265" y2="46.0823" gradientTransform="matrix(1 0 0 -1 0 70)">
			<stop  offset="0" style="stop-color:#A87600"/>
			<stop  offset="1" style="stop-color:#FFB70D"/>
		</linearGradient>
		<path class="st0" d="M21,8.7c-1.5-0.2-2.9,0.7-3.4,2c-0.7,2-0.9,4.1-0.8,6.3v11h9v1.1h-9v30.1h8.4v1.2H0.2v-1.2H4V29.1H0v-1.2h4
			v-0.3C4,21,5.3,16,7.8,12.6s6.7-5.1,12.6-5.1c3.9,0,6.7,0.8,8.4,2.3c1.6,1.3,2.5,3.3,2.5,5.3c0.1,1.7-0.4,3.3-1.6,4.5
			c-1.1,1-2.6,1.6-4.2,1.5c-1.5,0.1-2.9-0.4-4-1.3c-0.9-0.8-1.4-1.9-1.4-3.1c0-1.1,0.1-2.3,0.4-3.4h2.6C24,10.2,23.3,8.7,21,8.7z"/>
		
			<linearGradient id="SVGID_2_" gradientUnits="userSpaceOnUse" x1="29.6525" y1="18.972" x2="71.0196" y2="42.8504" gradientTransform="matrix(1 0 0 -1 0 70)">
			<stop  offset="0" style="stop-color:#A87600"/>
			<stop  offset="1" style="stop-color:#FFB70D"/>
		</linearGradient>
		<path class="st1" d="M38.6,14.7c2.7-2,6.6-3,11.9-3c5.3,0,9.4,1,12.2,3c2.8,2,4.3,4.9,4.3,8.8c0,1.2-0.1,2.3-0.3,3.5
			c-0.3,1.2-0.8,2.3-1.5,3.2c-0.8,1.1-1.6,2.1-2.3,3c-1.2,1.3-2.4,2.4-3.8,3.4c-2.7,2.2-5.6,4.4-8.6,6.5L45,47l-4.2,3h16.4
			c3.2,0,5.4-0.7,6.7-2.1c1.5-1.8,2.5-4.1,2.8-6.4H68l-0.7,19H35.1v-8l6.9-6.4c4.7-4.3,8-8.1,10-11.5c2-3.4,3-7.2,3-11.1
			c0-4-0.4-6.8-1.3-8.3c-0.9-1.5-2.6-2.4-4.4-2.2c-2,0-3.5,0.5-4.3,1.6c-0.7,0.8-1.2,1.9-1.2,3c0,0.9,0.1,1.7,0.4,2.5h2
			c0.4,1.1,0.6,2.3,0.5,3.5c0,1.4-0.6,2.7-1.7,3.5c-1.3,1-2.9,1.5-4.5,1.5c-1.6,0.1-3.3-0.6-4.3-1.8c-1.1-1.3-1.6-2.9-1.5-4.6
			C34.6,19.2,36.1,16.4,38.6,14.7z"/>
	</g>
</g>
</svg>
