<svg xmlns="http://www.w3.org/2000/svg" xmlns:xlink="http://www.w3.org/1999/xlink" viewBox="0 0 397 799.98"><defs><style>.cls-1{fill:url(#linear-gradient);}.cls-2{fill:url(#Gold);}.cls-3{fill:url(#linear-gradient-2);}.cls-4{fill:url(#linear-gradient-3);}.cls-5{fill:url(#linear-gradient-4);}.cls-6{fill:url(#linear-gradient-5);}.cls-7{fill:url(#linear-gradient-6);}.cls-8{fill:url(#linear-gradient-7);}.cls-9{fill:url(#linear-gradient-8);}.cls-10{fill:url(#linear-gradient-9);}.cls-11{fill:url(#linear-gradient-10);}.cls-12{fill:url(#linear-gradient-11);}.cls-13{fill:url(#linear-gradient-12);}.cls-14{fill:url(#linear-gradient-13);}</style><linearGradient id="linear-gradient" x1="277.75" y1="161.49" x2="277.75" y2="731.48" gradientUnits="userSpaceOnUse"><stop offset="0" stop-color="#404040"/><stop offset="0.41" stop-color="#373737"/><stop offset="0.99" stop-color="#212121"/></linearGradient><linearGradient id="Gold" x1="157" y1="446.49" x2="397" y2="446.49" gradientUnits="userSpaceOnUse"><stop offset="0" stop-color="#a87600"/><stop offset="1" stop-color="#ffb70d"/></linearGradient><linearGradient id="linear-gradient-2" x1="39.25" y1="1.5" x2="39.25" y2="561.48" xlink:href="#linear-gradient"/><linearGradient id="linear-gradient-3" x1="0" y1="281.49" x2="80" y2="281.49" xlink:href="#Gold"/><linearGradient id="linear-gradient-4" x1="158.5" y1="241.48" x2="158.5" y2="641.48" xlink:href="#linear-gradient"/><linearGradient id="linear-gradient-5" x1="77" y1="441.48" x2="240" y2="441.48" xlink:href="#Gold"/><linearGradient id="linear-gradient-6" x1="79.25" y1="401.48" x2="79.25" y2="799.98" xlink:href="#linear-gradient"/><linearGradient id="linear-gradient-7" x1="0" y1="599.98" x2="160" y2="599.98" xlink:href="#Gold"/><linearGradient id="linear-gradient-8" x1="238.5" y1="481.48" x2="238.5" y2="799.98" xlink:href="#linear-gradient"/><linearGradient id="linear-gradient-9" y1="639.98" x2="320" y2="639.98" xlink:href="#Gold"/><linearGradient id="linear-gradient-10" x1="118.5" y1="561.48" x2="118.5" y2="799.98" xlink:href="#linear-gradient"/><linearGradient id="linear-gradient-11" x1="77" y1="679.98" x2="160" y2="679.98" xlink:href="#Gold"/><linearGradient id="linear-gradient-12" x1="357.75" y1="641.5" x2="357.75" y2="799.98" xlink:href="#linear-gradient"/><linearGradient id="linear-gradient-13" x1="317" y1="719.99" y2="719.99" xlink:href="#Gold"/></defs><title>Asset 4</title><g id="Layer_2" data-name="Layer 2"><g id="Layer_1-2" data-name="Layer 1"><path class="cls-1" d="M397,161.49v570H158.5v-330c0-.5,0-1,0-1.5a238.91,238.91,0,0,1,29.17-113.3c.26-.48.52-.95.79-1.42s.47-.86.71-1.28A239.9,239.9,0,0,1,397,161.49Z"/><path class="cls-2" d="M227.73,230.71A242.75,242.75,0,0,0,188,282.88l-.71,1.27c-.27.47-.53,1-.79,1.42A240.21,240.21,0,0,0,157,400c0,.5,0,1,0,1.49V733H397v-3H160V401.48a237,237,0,0,1,28.87-113.66c.25-.48.51-.95.78-1.43l.71-1.28C231,212.7,308.34,163.53,397,163v-3A239.88,239.88,0,0,0,227.73,230.71Z"/><path class="cls-3" d="M78.5,81.48v480H0V1.5A80,80,0,0,1,78.5,81.48Z"/><path class="cls-4" d="M0,0V3A78.61,78.61,0,0,1,77,81.48V560H0v3H80V81.48A81.59,81.59,0,0,0,0,0Z"/><path class="cls-5" d="M238.5,401.48v240H78.5v-400A160,160,0,0,1,238.5,401.48Z"/><path class="cls-6" d="M240,643H77V240h1.5c89.05,0,161.5,72.45,161.5,161.5ZM80,640H237V401.48C237,314.58,166.71,243.8,80,243Z"/><path class="cls-7" d="M158.5,401.48V800H0V539.48A160.07,160.07,0,0,1,77,423.76l1.5-.87L80,422a159.22,159.22,0,0,1,77-20.54Z"/><path class="cls-8" d="M158.5,400H157a160.41,160.41,0,0,0-77,20.38l-1.5.86-1.5.86A162,162,0,0,0,0,530.41v31.07c0-.5,0-1,0-1.5a158.56,158.56,0,0,1,77-134.4l1.5-.89,1.5-.87A157.53,157.53,0,0,1,157,403V800h3V400Z"/><path class="cls-9" d="M318.5,641.48V800h-160V481.48H160A159.22,159.22,0,0,1,237,502l1.5.86,1.5.87A159.92,159.92,0,0,1,318.5,641.48Z"/><path class="cls-10" d="M240,502.09l-1.5-.86-1.5-.86A160.51,160.51,0,0,0,160,480h-3V800h3V483a157.53,157.53,0,0,1,77,20.83l1.5.87,1.5.89a158.56,158.56,0,0,1,77,135.9V800h3V641.48A161.61,161.61,0,0,0,240,502.09Z"/><path class="cls-11" d="M158.5,561.48V800h-80V641.48a80,80,0,0,1,78.5-80C157.5,561.48,158,561.48,158.5,561.48Z"/><path class="cls-12" d="M158.5,560c-.5,0-1,0-1.5,0a81.63,81.63,0,0,0-77,59.56q-.89,3.13-1.5,6.36A80.65,80.65,0,0,0,77,641.48V800h3V641.48c0-.5,0-1,0-1.5a78.61,78.61,0,0,1,77-77V800h3V560Z"/><path class="cls-13" d="M397,641.5V800H318.5v-78.5a80,80,0,0,1,78.5-80Z"/><path class="cls-14" d="M320,699.56q-.88,3.13-1.5,6.36a80.65,80.65,0,0,0-1.5,15.56V800h3v-78.5A78.61,78.61,0,0,1,397,643v-3A81.63,81.63,0,0,0,320,699.56Z"/></g></g></svg>