<?xml version="1.0" encoding="utf-8"?>
<!-- Generator: Adobe Illustrator 24.0.1, SVG Export Plug-In . SVG Version: 6.00 Build 0)  -->
<svg version="1.1" id="Layer_1" xmlns="http://www.w3.org/2000/svg" xmlns:xlink="http://www.w3.org/1999/xlink" x="0px" y="0px"
	 viewBox="0 0 576 576" style="enable-background:new 0 0 576 576;" xml:space="preserve">
<style type="text/css">
	.st0{fill:#CD5C5C;}
	.st1{fill:none;}
</style>
<title>fn</title>
<g id="Layer_2_1_">
	<g id="Layer_1-2">
		<path class="st0" d="M286.5,414.3l-15.3-183.1c-0.5-5.9-5.7-10.3-11.6-9.8c-1.2,0.1-2.4,0.4-3.6,0.9l-130.3,60.1l13.2,85.6
			L271.7,425c5.4,2.3,11.7-0.2,14-5.6C286.4,417.8,286.7,416,286.5,414.3L286.5,414.3z"/>
		<path class="st0" d="M285.8,0C127.5,1-0.3,129.7,0,288c0,108.2,59.7,202.5,148,251.7c5.2,2.9,11.7,1,14.5-4.2
			c1.2-2.1,1.6-4.5,1.2-6.8L139,368.2l-81-34.7c-5.4-2.3-7.9-8.6-5.5-14.1c1-2.4,2.9-4.3,5.3-5.4l68-31.4L101.1,122
			c-0.9-5.8,3.1-11.3,9-12.2c0,0,0,0,0,0c1-0.1,1.9-0.1,2.9,0l343.9,41.9c5.9,0.7,10,6.1,9.3,11.9c0,0.2,0,0.3-0.1,0.5l-62.9,369.3
			c-1,5.8,2.9,11.3,8.7,12.3c2.3,0.4,4.6,0,6.7-1C512,497.1,576,400,576,288C576,128.2,445.8-1.2,285.8,0z"/>
		<rect y="0" class="st1" width="576" height="576"/>
	</g>
</g>
</svg>
